# Made in Blockbench 4.11.2
mtllib ranged-basic.mtl

o cuboid
v 0.15625 0.375 0.09375
v 0.15625 0.375 -0.09375
v 0.15625 0.25 0.09375
v 0.15625 0.25 -0.09375
v -0.15625 0.375 0.09375
v -0.15625 0.375 -0.09375
v -0.15625 0.25 0.09375
v -0.15625 0.25 -0.09375
vt 0.5625 0.625
vt 0.375 0.625
vt 0.375 0.5
vt 0.5625 0.5
vt 0 0.8125
vt 0.3125 0.8125
vt 0.3125 1
vt 0 1
vt 0.3125 0.5625
vt 0.3125 0.75
vt 0 0.75
vt 0 0.5625
vt 0.6875 0.875
vt 0.6875 1
vt 0.375 1
vt 0.375 0.875
vt 0.6875 0.8125
vt 0.375 0.8125
vt 0.375 0.6875
vt 0.6875 0.6875
vt 0.375 0.5
vt 0.375 0.625
vt 0.5625 0.625
vt 0.5625 0.5
vn 1 0 0
vn 0 1 0
vn 0 -1 0
vn 0 0 1
vn 0 0 -1
vn -1 0 0
usemtl m_1aafde65-53a7-e250-9739-b0f33310e89d
f 2/1/1 1/2/1 3/3/1 4/4/1
f 5/5/2 1/6/2 2/7/2 6/8/2
f 4/9/3 3/10/3 7/11/3 8/12/3
f 3/13/4 1/14/4 5/15/4 7/16/4
f 6/17/5 2/18/5 4/19/5 8/20/5
f 7/21/6 5/22/6 6/23/6 8/24/6
o cuboid
v 0.0625 0.5 0.0625
v 0.0625 0.5 -0.0625
v 0.0625 0.3125 0.0625
v 0.0625 0.3125 -0.0625
v 0.0625 0.40625 0.0625
v 0.0625 0.40625 -0.0625
v -0.0625 0.5 0.0625
v -0.0625 0.5 -0.0625
v -0.0625 0.3125 0.0625
v -0.0625 0.3125 -0.0625
v -0.0625 0.40625 0.0625
v -0.0625 0.40625 -0.0625
vt 0 1
vt 0 0.8125
vt 0.25 0.8125
vt 0.25 1
vt 0.75 0.75
vt 1 0.75
vt 1 1
vt 0.75 1
vt 1 0.375
vt 1 0.625
vt 0.75 0.625
vt 0.75 0.375
vt 0.375 1
vt 0.375 0.8125
vt 0.625 0.8125
vt 0.625 1
vt 0 0.5
vt 0 0.3125
vt 0.25 0.3125
vt 0.25 0.5
vt 0.625 0.625
vt 0.625 0.8125
vt 0.375 0.8125
vt 0.375 0.625
vt 0.25 0.125
vt 0.25 0.3125
vt 0 0.3125
vt 0 0.125
vt 0.25 0.625
vt 0.25 0.8125
vt 0 0.8125
vt 0 0.625
vt 0.25 0.8125
vt 0 0.8125
vt 0 1
vt 0.25 1
vt 0 0.8125
vt 0.25 0.8125
vt 0.25 0.625
vt 0 0.625
vn 1 0 0
vn 0 1 0
vn 0 -1 0
vn 0 0 1
vn 0 0 -1
vn 0 0 1
vn 0 0 -1
vn 1 0 0
vn -1 0 0
vn -1 0 0
usemtl m_c58bf1cc-afbd-68ba-9049-0627401529f9
f 9/25/7 13/26/7 14/27/7 10/28/7
f 15/29/8 9/30/8 10/31/8 16/32/8
f 12/33/9 11/34/9 17/35/9 18/36/9
f 15/37/10 19/38/10 13/39/10 9/40/10
f 10/41/11 14/42/11 20/43/11 16/44/11
f 11/45/12 13/46/12 19/47/12 17/48/12
f 18/49/13 20/50/13 14/51/13 12/52/13
f 12/53/14 14/54/14 13/55/14 11/56/14
f 20/57/15 19/58/15 15/59/15 16/60/15
f 19/61/16 20/62/16 18/63/16 17/64/16
o cuboid
v 0.12152777777777778 0.25 0.09375
v 0.12152777777777778 0.25 -0.09375
v 0.21875 0 0.09375
v 0.21875 0 -0.09375
v -0.12152777777777778 0.25 0.09375
v -0.12152777777777778 0.25 -0.09375
v -0.21875 0 0.09375
v -0.21875 0 -0.09375
vt 0.6875 0.5
vt 0.5 0.5
vt 0.5 0.25
vt 0.6875 0.25
vt 0.5 0.5625
vt 0.75 0.5625
vt 0.75 0.75
vt 0.5 0.75
vt 0.9375 0.8125
vt 0.9375 1
vt 0.5 1
vt 0.5 0.8125
vt 0.4375 0.75
vt 0.340275 1
vt 0.097225 1
vt 0 0.75
vt 0.340275 0.6875
vt 0.097225 0.6875
vt 0 0.4375
vt 0.4375 0.4375
vt 0.5 0.25
vt 0.5 0.5
vt 0.6875 0.5
vt 0.6875 0.25
vn 0.932004671541296 0.36244626115494843 0
vn 0 1 0
vn 0 -1 0
vn 0 0 1
vn 0 0 -1
vn -0.932004671541296 0.36244626115494843 0
usemtl m_aa4289d5-6a5e-09ba-29d2-df71760f459d
f 22/65/17 21/66/17 23/67/17 24/68/17
f 25/69/18 21/70/18 22/71/18 26/72/18
f 24/73/19 23/74/19 27/75/19 28/76/19
f 23/77/20 21/78/20 25/79/20 27/80/20
f 26/81/21 22/82/21 24/83/21 28/84/21
f 27/85/22 25/86/22 26/87/22 28/88/22